<svg width="150" height="150" viewBox="0 0 150 150" fill="none" xmlns="http://www.w3.org/2000/svg">
<g clip-path="url(#clip0_534_672)">
<path d="M112.481 112.5H106.244C106.244 102.8 106.619 101.406 100.744 100.044C91.7562 97.9687 83.2625 96.0125 80.1625 89.2375C79.0375 86.7625 78.2812 82.6875 81.1312 77.3188C87.5125 65.2625 89.1125 54.925 85.5187 48.9563C81.3187 41.9875 68.6 41.9562 64.3625 49.0625C60.7625 55.1125 62.3875 65.3938 68.8187 77.2625C71.725 82.6125 70.9937 86.7 69.8687 89.1875C66.8062 95.9938 58.3937 97.9375 49.4812 99.9875C43.3437 101.406 43.7313 102.706 43.7313 112.5H37.5125L37.5 108.606C37.5 100.738 38.125 96.2 47.425 94.05C57.9375 91.6188 68.325 89.45 63.3313 80.2437C48.5438 52.9625 59.1063 37.5 74.9875 37.5C90.5625 37.5 101.406 52.3937 86.6562 80.2437C81.8125 89.3937 91.8062 91.5688 102.562 94.05C111.875 96.2 112.494 100.75 112.494 108.631L112.481 112.5ZM142.544 98.6625C134.487 96.8 126.988 95.1687 130.619 88.3062C141.681 67.4187 133.556 56.25 121.869 56.25C113.963 56.25 107.819 61.3562 107.819 70.7812C107.819 78.7125 111.406 84.375 113.469 89.0625H120.019C118.956 84.375 110.856 73.05 115.231 65.7125C117.806 61.3875 125.881 61.3812 128.444 65.6375C130.819 69.5812 129.575 76.9625 125.106 85.3938C122.681 89.975 123.356 93.525 124.35 95.6937C126.256 99.8562 130.456 101.862 135.206 103.244C144.625 106 143.756 103.506 143.756 112.494H149.987L150 109.6C150 103.694 149.537 100.275 142.544 98.6625ZM0.0125 112.5H6.24375C6.24375 103.513 5.375 106.006 14.7938 103.25C19.55 101.869 23.75 99.8625 25.65 95.7C26.6438 93.525 27.3188 89.9812 24.8938 85.4C20.425 76.9687 19.1812 69.5875 21.5562 65.6438C24.1187 61.3813 32.1938 61.3875 34.7688 65.7188C39.1438 73.0625 31.0437 84.3813 29.9812 89.0688H36.5312C38.5937 84.3813 42.1813 78.7188 42.1813 70.7875C42.1875 61.3563 36.0437 56.25 28.1375 56.25C16.45 56.25 8.325 67.4187 19.3875 88.3062C23.0187 95.175 15.5188 96.8 7.4625 98.6625C0.4625 100.275 0 103.694 0 109.606L0.0125 112.5Z" fill="black"/>
</g>
<defs>
<clipPath id="clip0_534_672">
<rect width="150" height="150" fill="white"/>
</clipPath>
</defs>
</svg>
