<svg width="400" height="400" viewBox="0 0 400 400" fill="none" xmlns="http://www.w3.org/2000/svg">
<path fill-rule="evenodd" clip-rule="evenodd" d="M174.981 7.85C189.864 -2.61667 210.114 -2.61667 225.014 7.85C260.714 32.95 253.047 30.55 297.264 30.4167C315.731 30.35 332.114 41.7833 337.747 58.6833C351.297 99.1333 346.531 92.8833 382.397 117.75C397.381 128.133 403.647 146.633 397.864 163.483C384.097 203.767 384.031 196.033 397.864 236.5C403.647 253.35 397.381 271.85 382.397 282.233C346.547 307.1 351.297 300.85 337.747 341.3C332.114 358.2 315.731 369.633 297.264 369.583C253.031 369.433 260.714 367.033 225.014 392.133C210.114 402.617 189.864 402.617 174.981 392.133C139.264 367.05 146.947 369.417 102.731 369.583C84.2639 369.633 67.8805 358.2 62.2472 341.3C48.7139 300.8 53.3639 307.067 17.5805 282.233C2.61387 271.85 -3.65279 253.35 2.13054 236.5C15.9139 196.2 15.9639 203.95 2.13054 163.483C-3.65279 146.633 2.61387 128.133 17.5805 117.75C53.3472 92.9333 48.6972 99.2167 62.2472 58.6833C67.8805 41.7833 84.2639 30.35 102.731 30.4167C146.831 30.55 139.064 33.1 174.981 7.85Z" fill="black"/>
</svg>
